<?xml version="1.0" standalone="no"?>
<!DOCTYPE svg PUBLIC "-//W3C//DTD SVG 1.1//EN" "http://www.w3.org/Graphics/SVG/1.1/DTD/svg11.dtd" >
<svg xmlns="http://www.w3.org/2000/svg">
<metadata>Generated by IcoMoon</metadata>
<defs>
<font id="icomoon" horiz-adv-x="1024">
<font-face units-per-em="1024" ascent="960" descent="-64" />
<missing-glyph horiz-adv-x="1024" />
<glyph unicode="&#x20;" horiz-adv-x="512" d="" />
<glyph unicode="&#xe900;" glyph-name="ac" d="M128 810.667h832v-374.4c0-45.76-37.44-83.2-83.2-83.2h-665.6c-45.76 0-83.2 37.44-83.2 83.2v374.4zM876.8 561.067v166.4h-665.6v-166.4c0-45.76 37.44-83.2 83.2-83.2h499.2c45.76 0 83.2 37.44 83.2 83.2zM585.6 561.067c-20.8 0-41.6 16.64-41.6 41.6s16.64 41.6 41.6 41.6h166.4c24.96 0 41.6-16.64 41.6-41.6s-16.64-41.6-41.6-41.6h-166.4zM252.8 269.867c24.96 0 41.6-20.8 41.6-41.6v-208c0-24.96-16.64-41.6-41.6-41.6s-41.6 16.64-41.6 41.6v208c0 24.96 16.64 41.6 41.6 41.6zM835.2 269.867c24.96 0 41.6-20.8 41.6-41.6v-208c0-24.96-16.64-41.6-41.6-41.6s-41.6 16.64-41.6 41.6v208c0 24.96 16.64 41.6 41.6 41.6zM544 269.867c24.96 0 41.6-20.8 41.6-41.6v-208c0-24.96-16.64-41.6-41.6-41.6s-41.6 16.64-41.6 41.6v208c0 24.96 16.64 41.6 41.6 41.6z" />
<glyph unicode="&#xe901;" glyph-name="balcony" d="M168.296 85.333h711.11c19.626 0 35.556 16.142 35.556 36.030v288.238c0 19.888-15.93 36.030-35.556 36.030h-106.666v324.266c0 19.888-15.93 36.030-35.556 36.030h-426.666c-19.626 0-35.556-16.142-35.556-36.030v-324.266h-106.666c-19.626 0-35.556-16.142-35.556-36.030v-288.238c0-19.888 15.93-36.030 35.556-36.030v0zM772.74 373.571h71.11v-216.178h-71.11v216.178zM559.406 157.393h-71.11v216.178h71.11v-216.178zM701.63 157.393h-71.11v216.178h71.11v-216.178zM346.074 733.867h355.556v-288.238h-355.556v288.238zM346.074 373.571h71.11v-216.178h-71.11v216.178zM203.852 373.571h71.11v-216.178h-71.11v216.178z" />
<glyph unicode="&#xe902;" glyph-name="bathtub" d="M348.83 721.191l230.26-210.84-11.586-12.654-230.26 210.84 11.586 12.654zM319.306 701.261l130.42-194.214-14.244-9.564-130.42 194.214 14.244 9.564zM340.35 499.687l-61.052 183.118 16.276 5.426 61.052-183.118-16.276-5.426zM930.042 468.901h-733.314v253.314l-0.010 0.902c0 0.132 0.114 13.498 7.868 21.262 1.738 1.716 6.968 6.982 22.358 6.982 5.828 0 18.058-1.582 21.834-13.914l-1.088-0.73c-11.97-8.018-14.982-23.952-6.696-35.574 8.298-11.61 24.702-14.514 36.682-6.476l43.334 29.088c12 8.028 14.982 23.952 6.706 35.574-8.15 11.418-24.116 14.35-36.032 6.83-14.678 24.764-43.398 34.618-64.74 34.618-30.738 0-49.182-12.038-59.278-22.106-21.846-21.862-22.348-51.202-22.212-56.774v-252.998h-52.794c-14.742 0-26.69-11.51-26.69-25.728 0-14.198 11.948-25.708 26.69-25.708h14.762c-1.558-3.45-2.646-7.034-2.646-10.93l42.028-185.762c12.178-36.15 42.426-63.17 90.414-74.332-7.574-5.49-12.502-14.198-12.502-24.054 0-16.644 13.978-30.114 31.23-30.114 17.262 0 31.272 13.468 31.272 30.114 0 7.074-2.564 13.55-6.78 18.694 3.17-0.122 6.34-0.234 9.646-0.234h416.546c-4.112-5.116-6.58-11.498-6.58-18.462 0-16.644 13.998-30.114 31.262-30.114 17.274 0 31.25 13.468 31.25 30.114 0 8.272-3.462 15.762-9.070 21.19 77.652 16.818 95.762 56.622 109.478 93.108l48.514 171.45c0 3.298-0.702 6.364-1.684 9.326h20.254c14.742 0 26.646 11.51 26.646 25.708-0.010 14.218-11.926 25.728-26.658 25.728v0z" />
<glyph unicode="&#xe904;" glyph-name="coffee-table" d="M633.019 181.357h-85.816v450.682h-70.398v-450.682h-85.834c-19.432 0-35.198-14.992-35.198-33.48s15.768-33.488 35.198-33.488h242.047c19.432 0 35.198 15 35.198 33.488s-15.758 33.48-35.198 33.48v0zM869.285 738.945h-714.57c-19.432 0-35.198-15-35.198-33.488s15.768-33.48 35.198-33.48h714.57c19.432 0 35.198 14.992 35.198 33.48s-15.758 33.488-35.198 33.488v0z" />
<glyph unicode="&#xe905;" glyph-name="dining-table" d="M872.957 24.901v448.116h-129l-59.322-53.096v-240.18c0-8.698-7.28-15.75-15.694-15.75-8.668 0-15.694 7.132-15.694 15.466v212.372l-129.778-116.158c-6.198-5.548-16.738-5.724-23.116-0.014l-129.588 115.99v-212.186c0-8.542-7.28-15.466-15.694-15.466-8.668 0-15.694 6.874-15.694 15.75v239.994l-59.53 53.282h-128.794v-448.116c0-8.518-7.28-15.422-15.694-15.422-8.668 0-15.694 6.912-15.694 15.422v448.116h-46.934c-8.748 0-15.842 6.668-15.842 15.308v62.090c0 8.454 6.804 15.308 15.798 15.308h266.684v216.33c0 34.126 28.254 61.794 62.524 61.794h220.21c34.53 0 62.524-27.424 62.524-61.794v-216.33h266.684c8.726 0 15.798-6.668 15.798-15.308v-62.090c0-8.454-6.718-15.308-15.842-15.308h-46.934v-448.116c0-8.518-7.28-15.422-15.694-15.422-8.668 0-15.694 6.912-15.694 15.422zM88.283 503.919h157.25l-34.526 30.902h-122.722v-30.902zM935.731 534.823h-122.516l-34.526-30.902h157.042v30.902zM653.249 565.725v216.394c0 17.034-14.018 30.826-31.31 30.826h-219.862c-17.302 0-31.31-13.802-31.31-30.826v-216.394h282.482zM449.233 782.043c8.668 0 15.694-7.042 15.694-15.174v-155.070c0-8.38-7.28-15.174-15.694-15.174-8.668 0-15.694 7.042-15.694 15.174v155.070c0 8.38 7.28 15.174 15.694 15.174v0zM512.007 782.043c8.668 0 15.694-7.042 15.694-15.174v-155.070c0-8.38-7.28-15.174-15.694-15.174-8.668 0-15.694 7.042-15.694 15.174v155.070c0 8.38 7.28 15.174 15.694 15.174v0zM574.781 782.043c8.668 0 15.694-7.042 15.694-15.174v-155.070c0-8.38-7.28-15.174-15.694-15.174-8.668 0-15.694 7.042-15.694 15.174v155.070c0 8.38 7.28 15.174 15.694 15.174v0z" />
<glyph unicode="&#xe906;" glyph-name="dth" d="M202.106 325.708c78.992-152.652 267.882-212.712 421.61-134.352l-286.172 552.736c-153.888-78.516-213.958-265.732-135.438-418.384v0zM309.954 171.962l-74.736-129.504h177.696l-63.7 110.11c-12.93 5.474-26.488 12.044-39.26 19.396v0zM529.272 440.038l135.438 121.526-178.326-38.162zM643.9 692.946c-8.040 2.972-16.556-1.25-19.552-9.072-2.994-7.976 1.262-16.422 9.146-19.396 39.26-13.452 70.478-41.292 88.926-78.986 17.816-37.066 20.182-79.61 6.778-118.556-2.994-7.976 1.262-16.422 9.146-19.396 1.892-0.626 14.662-2.66 19.552 9.696 16.556 46.766 14.032 97.284-8.040 141.702-21.286 44.106-58.812 77.576-105.954 94v0zM663.45 748.312c-8.040 2.972-16.556-1.25-19.552-9.072-2.994-7.976 1.262-16.422 9.146-19.396 53.922-18.768 97.44-57.088 122.036-108.234 25.070-51.614 28.224-109.484 8.516-162.974-2.994-7.976 1.262-16.422 9.146-19.396 1.892-0.626 14.504-2.814 19.552 9.696 22.074 61.468 18.446 127.628-10.406 186.592-26.804 57.088-76.47 101.506-138.436 122.776v0zM860.222 651.654c-35.476 73.51-98.070 128.878-175.96 156.25-8.040 2.972-16.556-1.25-19.552-9.072s1.262-16.422 9.146-19.396c69.848-24.242 126.296-74.134 158.144-140.452 32.482-66.314 36.108-141.702 11.668-211.616-2.994-7.976 1.262-16.422 9.146-19.396 1.892-0.626 14.19-3.128 19.552 9.696 28.382 76.482 24.122 159.844-12.14 233.982v0z" />
<glyph unicode="&#xe907;" glyph-name="event-hosting" d="M761.862 645.793h-390.132c2.218 88.072 21.302 143.748 36.558 161.952 7.854-16.030 23.3-27.104 41.244-27.104 25.83 0 46.85 22.688 46.85 50.568s-21.020 50.568-46.85 50.568c-21.378 0-39.26-15.626-44.866-36.796-39.916-16.738-61.826-106.21-64.184-199.186h-78.348c-8.62 0-15.618-7.55-15.618-16.856s6.996-16.856 15.618-16.856h47.646l30.452-624.564c0.438-8.95 7.294-15.962 15.602-15.962h312.332c8.308 0 15.164 7.012 15.602 15.962l30.452 624.564h47.646c8.636 0 15.618 7.55 15.618 16.856s-6.98 16.856-15.618 16.856v0zM574.464 443.521h-124.932c-8.62 0-15.618 7.55-15.618 16.856s6.996 16.856 15.618 16.856h124.932c8.636 0 15.618-7.55 15.618-16.856s-6.98-16.856-15.618-16.856v0z" />
<glyph unicode="&#xe908;" glyph-name="fridge" d="M720.593 773.972l-417.186 0.348c-38.242 0-69.53-30.942-69.53-69.53v-556.246c0-38.242 31.29-69.53 69.53-69.53h417.186c38.242 0 69.53 31.29 69.53 69.53v556.246c0 38.59-31.29 69.182-69.53 69.182v0zM720.593 148.542h-417.186v313.584h417.186v-313.584zM720.593 530.962h-417.186v173.828h417.186v-173.828zM372.939 670.024h69.53v-104.296h-69.53v104.296zM372.939 426.666h69.53v-173.828h-69.53v173.828z" />
<glyph unicode="&#xe909;" glyph-name="gym" d="M777.482 655.231h-75.852c-41.87 0-75.852-33.788-75.852-75.418v-113.128h-227.556v113.128c0 41.63-33.982 75.418-75.852 75.418h-75.852c-41.87 0-75.852-33.788-75.852-75.418v-301.674c0-41.63 33.982-75.418 75.852-75.418h75.852c41.87 0 75.852 33.788 75.852 75.418v113.128h227.556v-113.128c0-41.63 33.982-75.418 75.852-75.418h75.852c41.87 0 75.852 33.788 75.852 75.418v301.674c0 41.668-33.944 75.418-75.852 75.418v0zM891.26 504.393h75.852v-150.836h-75.852v150.836zM56.89 504.393h75.852v-150.836h-75.852v150.836z" />
<glyph unicode="&#xe90a;" glyph-name="iron-board" d="M94.814 595.227h872.296v-84.28h-872.296v84.28zM535.55 712.017h-160.65c34.212 40.516 72.27 51.172 100.724 57.582h47.148c9.638 0 17.446 7.91 17.446 18.122s-7.806 18.13-17.446 18.13h-66.302c-1.562 0-3.044 0.242-4.484-0.158-104.71-11.49-222.862-149.66-223.308-150.178-10.398-10.398-16.494-37.342 11.426-37.342h302.25c10.38 0 19.034 8.936 19.034 19.962v45.566c0-0.010 2.992 28.314-25.838 28.314v0zM336.29 572.249l448.722-472.854-30.566-29.006-448.722 472.854 30.566 29.006zM305.722 99.393l448.722 472.854 30.566-29.006-448.722-472.854-30.566 29.006z" />
<glyph unicode="&#xe90b;" glyph-name="kitchen" d="M903.697 155.583h13.458c13.458 0 24.032 10.372 24.032 23.574v389.413c0 13.2-10.573 23.574-24.032 23.574h-54.789l43.256 42.431 15.379-15.086c10.573-10.372 27.875 5.658 17.301 16.973l-48.061 47.145c-10.573 10.372-27.875-5.658-17.301-16.973l15.379-15.086-43.256-42.431v135.776c0 32.057-26.914 59.402-60.557 59.402s-60.557-26.401-60.557-59.402v-23.574c0-15.086 24.032-15.086 24.032 0v23.574c0 19.801 16.341 35.83 36.525 35.83s36.525-16.030 36.525-35.83v-136.718l-43.256 42.431 15.379 15.086c10.573 10.372-5.768 27.343-17.301 16.973l-48.061-47.145c-10.573-10.372 5.768-27.343 17.301-16.973l15.379 15.086 43.256-42.431h-103.813c-5.768 59.402-57.672 106.545-119.191 106.545s-113.426-46.2-119.191-106.545h-97.082l22.109 28.288c2.885 3.771 2.885 8.485 0.96 12.259s-5.768 6.601-10.573 6.601h-12.496l22.109 28.288c2.885 3.771 2.885 8.485 0.96 12.259s-5.768 6.601-10.573 6.601h-12.496l22.109 28.288c2.885 3.771 2.885 8.485 0.96 12.259s-5.768 6.601-10.573 6.601h-12.496l22.109 28.288c2.885 3.771 2.885 8.485 0.96 12.259s-5.768 6.601-10.573 6.601h-216.276c-4.805 0-8.651-2.828-10.573-6.601s-1.923-8.485 0.96-12.259l22.109-28.288h-12.496c-4.805 0-8.651-2.828-10.573-6.601s-1.923-8.485 0.96-12.259l22.109-28.288h-12.496c-4.805 0-8.651-2.828-10.573-6.601s-1.923-8.485 0.96-12.259l22.109-28.288h-12.496c-4.805 0-8.651-2.828-10.573-6.601s-1.923-8.485 0.96-12.259l22.109-28.288h-73.053c-13.458 0.943-24.032-9.429-24.032-22.628v-389.413c0-13.2 10.573-23.574 24.032-23.574h13.458l-36.525-89.574c-1.923-3.771-0.96-7.544 0.96-11.315 1.923-2.828 5.768-4.714 9.613-4.714h48.061c2.885 0 5.768 0.943 8.651 3.771l104.773 101.831h519.063l104.773-102.776c1.923-1.887 5.768-3.771 8.651-3.771h48.061c6.728 0 12.496 5.658 12.496 12.259 0 1.887-0.96 4.714-1.923 6.601l-36.525 87.688zM124.142 202.728v212.149h768.982v-212.149h-768.982zM580.726 674.172c49.023 0 89.394-35.83 95.162-82.973h-36.525c-5.768 26.401-29.797 47.145-58.634 47.145s-52.869-20.744-58.634-47.145h-36.525c5.768 47.145 46.138 82.973 95.162 82.973v0zM614.368 592.139h-67.285c4.805 14.143 18.264 23.574 33.643 23.574s28.837-9.429 33.643-23.574v0zM184.699 757.145h168.215l-18.264-23.574h-132.65l-17.301 23.574zM184.699 710.002h169.175l-18.264-23.574h-133.61l-17.301 23.574zM184.699 662.856h169.175l-18.264-23.574h-133.61l-17.301 23.574zM184.699 615.711h169.175l-18.264-23.574h-133.61l-17.301 23.574zM893.124 544.996v-106.545h-768.982v106.545h768.982zM130.87 73.553h-24.992l33.643 82.973h75.936l-84.589-82.973zM886.396 73.553l-84.589 82.973h75.936l33.643-82.973h-24.992zM106.665 563.109h803.935v-361.772h-803.935v361.772zM106.665 482.716h803.935v-40.197h-803.935v40.197z" />
<glyph unicode="&#xe90c;" glyph-name="extra-amenities" d="M152.235 822.364c-54.546-38.106-86.876-105.208-86.876-170.144v-482.418c3.926-28.326 12.669-56.786 30.202-85.91 29.218-48.542 74.088-80.578 134.678-84.108 40.562-2.378 130.586-3.162 256.598-2.766 52.878 0.166 109.366 0.538 166.742 1.050 28.024 0.25 54.44 0.518 78.45 0.788 24.816 0.286 24.816 0.286 30.442 0.358 28.086 2.35 61.874 10.45 96.498 29.214 60.932 33.020 99.338 88.654 99.338 166.519h-94.814c0-40.374-17.482-65.7-49.698-83.158-21.262-11.522-43.362-16.82-56.112-17.948-1.982 0.11-1.982 0.11-26.716-0.176-23.942-0.268-50.29-0.535-78.238-0.786-57.206-0.51-113.518-0.882-166.194-1.046-123.706-0.39-212.966 0.388-250.77 2.604-26.298 1.532-44.738 14.696-58.974 38.35-10.214 16.972-15.634 34.61-17.216 44.499l0.594 202.814v272.118c0 35.010 18.172 72.724 46.333 92.398 15.406 10.746 58.452 17.282 100.946 17.282v94.814c-61.71 0-118.286-8.59-155.218-34.354zM850.009 554.308h-383.094c-23.322 0-42.156 17.978-42.156 40.238s18.834 40.278 42.156 40.278h383.094c23.322 0 42.156-18.014 42.156-40.278s-17.918-40.238-42.156-40.238zM658.911 371.896c-23.322 0-42.156 17.978-42.156 40.238v366.554c0 22.262 18.834 40.238 42.156 40.238s42.156-17.978 42.156-40.238v-365.682c0-23.134-18.834-41.112-42.156-41.112z" />
<glyph unicode="&#xe90d;" glyph-name="phone-call" d="M808.633 302.336c-20.972 21.711-46.258 33.322-73.055 33.322-26.586 0-52.094-11.39-73.92-33.112l-68.308-67.726c-5.625 3.013-11.24 5.805-16.643 8.598-7.779 3.873-15.133 7.528-21.404 11.401-63.977 40.42-122.121 93.103-177.887 161.26-27.018 33.975-45.172 62.574-58.354 91.59 17.719 16.126 34.151 32.905 50.141 49.031 6.060 6.015 12.107 12.25 18.165 18.276 45.383 45.145 45.383 103.634 0 148.789l-59.019 58.699c-6.69 6.665-13.615 13.543-20.094 20.418-12.972 13.334-26.586 27.097-40.633 40.001-20.972 20.641-46.048 31.602-72.412 31.602-26.375 0-51.873-10.96-73.488-31.602l-0.432-0.43-73.498-73.755c-27.664-27.516-43.443-61.058-46.904-99.978-5.182-62.781 13.404-121.27 27.672-159.537 35.008-93.963 87.326-181.038 165.353-274.362 94.67-112.452 208.58-201.25 338.701-263.821 49.709-23.434 116.074-51.17 190.205-55.895 4.55-0.22 9.3-0.43 13.625-0.43 49.933 0 91.863 17.835 124.717 53.323 0.213 0.43 0.646 0.64 0.867 1.070 11.24 13.543 24.2 25.807 37.826 38.917 9.286 8.821 18.797 18.058 28.094 27.739 21.404 22.141 32.633 47.948 32.633 74.392 0 26.656-11.45 52.254-33.276 73.755l-118.671 118.467zM886.017 75.932c-0.222 0-0.222-0.22 0 0-8.432-9.041-17.078-17.209-26.375-26.237-14.047-13.333-28.315-27.307-41.711-43.003-21.836-23.224-47.555-34.184-81.277-34.184-3.24 0-6.701 0-9.94 0.21-64.19 4.085-123.853 29.029-168.593 50.31-122.342 58.919-229.773 142.562-319.039 248.558-73.698 88.376-122.985 170.078-155.618 257.803-20.107 53.533-27.453 95.256-24.211 134.596 2.161 25.165 11.883 46.015 29.826 63.862l73.709 73.325c10.586 9.888 21.826 15.263 32.854 15.263 13.615 0 24.633-8.179 31.558-15.054l0.643-0.642c13.193-12.261 25.722-24.944 38.912-38.487 6.703-6.886 13.617-13.764 20.529-20.862l59.008-58.699c22.912-22.791 22.912-43.863 0-66.654-6.268-6.238-12.318-12.473-18.586-18.488-18.154-18.488-35.451-35.695-54.248-52.463-0.432-0.43-0.865-0.65-1.086-1.070-18.586-18.499-15.125-36.558-11.242-48.808l0.657-1.943c15.344-36.977 36.959-71.812 69.813-113.312l0.213-0.21c59.662-73.102 122.553-130.091 191.937-173.733 8.865-5.596 17.94-10.111 26.586-14.403 7.787-3.876 15.133-7.528 21.401-11.401 0.867-0.433 1.732-1.072 2.596-1.502 7.346-3.653 14.26-5.375 21.393-5.375 17.943 0 29.183 11.181 32.854 14.833l73.923 73.534c7.354 7.319 19.029 16.126 32.644 16.126 13.404 0 24.422-8.377 31.123-15.696l119.527-118.897c22.269-21.931 22.269-44.516 0.222-67.296zM552.717 691.082c56.623-9.461 108.074-36.128 149.142-76.977 41.065-40.85 67.652-92.020 77.381-148.356 2.375-14.196 14.693-24.084 28.75-24.084 1.721 0 3.24 0.22 4.971 0.43 15.99 2.583 26.583 17.628 23.99 33.542-11.675 68.159-44.097 130.301-93.595 179.539-49.498 49.241-111.967 81.493-180.486 93.103-15.99 2.572-30.901-7.958-33.719-23.654-2.807-15.696 7.565-30.959 23.566-33.542zM1022.184 484.027c-19.229 112.229-72.412 214.36-154.111 295.643-81.698 81.27-184.369 134.16-297.203 153.302-15.779 2.792-30.69-7.958-33.497-23.654-2.596-15.906 7.989-30.752 23.99-33.545 100.728-16.986 192.59-64.504 265.646-136.966 73.055-72.672 120.61-164.052 137.689-264.251 2.375-14.183 14.69-24.073 28.74-24.073 1.729 0 3.25 0.21 4.969 0.43 15.79 2.362 26.597 17.419 23.779 33.115z" />
<glyph unicode="&#xe90e;" glyph-name="laundry" d="M701.482 768.001h-418.994c-33.472 0-65.99-33.526-65.99-66.568v-505.78c0.014-33.026 27.076-69.722 60.532-69.722h28.398v-12.834c0-12.59 10.454-22.438 23.202-22.438h27.722c12.762 0 23.048 9.83 23.048 22.438v12.834h221.898v-12.834c0-12.59 10.27-22.438 23.032-22.438h27.738c12.762 0 23.202 9.83 23.202 22.438v12.834h26.63c33.472 0 62.286 36.682 62.286 69.722v505.506c0 33.042-29.228 66.842-62.7 66.842v0zM277.382 678.297v20.89c0 10.346 8.134 18.386 18.604 18.386h65.53c10.486 0 18.912-8.040 18.912-18.386v-20.89c0-10.33-8.426-18.948-18.912-18.948h-65.53c-10.47 0-18.604 8.602-18.604 18.948v0zM489.162 239.373c-109.166 0-197.65 87.29-197.65 195 0 107.694 88.486 195 197.65 195 109.15 0 197.634-87.306 197.634-195 0-107.71-88.486-195-197.634-195v0zM489.162 583.119c-83.274 0-150.77-66.598-150.77-148.746 0-82.162 67.498-148.776 150.77-148.776 83.288 0 150.77 66.614 150.77 148.776s-67.498 148.746-150.77 148.746v0zM489.162 344.913c-50.002 0-90.668 40.14-90.668 89.444s40.668 89.444 90.668 89.444c49.97 0 90.654-40.126 90.654-89.444 0.014-49.304-40.652-89.444-90.654-89.444v0zM451.308 463.501c-11.624-9.77-19.020-24.274-19.020-40.52 0-29.4 24.14-53.202 53.938-53.202 23.34 0 43.158 14.638 50.646 35.074-34.978 8.722-65.3 30.052-85.564 58.65v0z" />
<glyph unicode="&#xe90f;" glyph-name="living-room" horiz-adv-x="1040" d="M377.199 113.067h336.622c12.551 0 22.827 10.454 22.827 23.23v185.836c0 12.787-10.269 23.23-22.827 23.23h-336.622v-232.296zM408.58 264.060v0c4.711 0 8.558-3.913 8.558-8.715v-52.266c0-4.785-3.848-8.715-8.558-8.715v0c-4.711 0-8.558 3.927-8.558 8.715v52.266c0 4.796 3.848 8.715 8.558 8.715v0zM29.161 113.067h336.622v232.296h-336.622c-12.551 0-22.827-10.454-22.827-23.23v-185.836c0-12.776 10.269-23.23 22.827-23.23v0 0zM334.41 264.060v0c4.711 0 8.558-3.913 8.558-8.715v-52.266c0-4.785-3.848-8.715-8.558-8.715v0c-4.7 0-8.558 3.913-8.558 8.715v52.266c0 4.796 3.848 8.715 8.558 8.715v0zM29.161 101.452h34.234l-5.707-23.23h-22.827zM679.591 101.452h34.234l-5.707-23.23h-22.827zM97.625 775.112h547.73c6.278 0 11.41-5.226 11.41-11.615v-325.215c0-6.389-5.138-11.615-11.41-11.615h-547.73c-6.278 0-11.41 5.226-11.41 11.615v325.215c0 6.389 5.138 11.615 11.41 11.615v0 0zM118.931 751.882c-5.445 0-9.892-4.531-9.892-10.071v-281.856c0-5.53 4.452-10.058 9.892-10.058h505.133c5.432 0 9.881 4.531 9.881 10.071v281.844c0 5.541-4.452 10.071-9.892 10.071h-505.12zM617.255 443.646c-2.919 0-5.285-2.405-5.285-5.379s2.359-5.379 5.285-5.379c2.912 0.007 5.285 2.416 5.285 5.388s-2.375 5.367-5.285 5.367v0zM268.794 380.207h79.877v34.845h45.645v-34.845h79.877c6.278 0 11.41-5.217 11.41-11.615v0c0-6.389-5.138-11.615-11.41-11.615h-205.399c-6.278 0-11.41 5.226-11.41 11.615v0c0 6.389 5.138 11.615 11.41 11.615v0zM802.123 264.060h182.578l-22.832-185.836h-136.932zM878.554 275.673c0 136.29-101.162 167.846-124.004 159.531 21.028 28.525 87.774 31.745 119.015-16.283-7.542 101.387-74.218 165.882-129.024 156.285 56.689 36.273 121.699 5.784 133.565-54.032-13.452 113.897 61.766 203.388 124.712 219.089-38.605-24.183-105.197-201.019-99.559-270.938 18.143 32.325 86.462 53.627 130.074 39.471-30.534-2.693-126.539-27.169-125.065-233.117h-29.715z" />
<glyph unicode="&#xe910;" glyph-name="microwave" d="M132.741 654.222v-455.11c0-22.756 15.17-37.926 37.926-37.926h682.666c22.756 0 37.926 15.17 37.926 37.926v455.11c0 22.756-15.17 37.926-37.926 37.926h-682.666c-18.962 0-37.926-18.962-37.926-37.926v0zM663.705 237.036h-455.11v379.26h455.11v-379.26zM777.483 350.814c-22.756 0-37.926 15.17-37.926 37.926s15.17 37.926 37.926 37.926c22.756 0 37.926-15.17 37.926-37.926s-18.962-37.926-37.926-37.926v0zM777.483 502.518c-22.756 0-37.926 15.17-37.926 37.926s15.17 37.926 37.926 37.926c22.756 0 37.926-15.17 37.926-37.926s-18.962-37.926-37.926-37.926v0z" />
<glyph unicode="&#xe911;" glyph-name="parking" d="M898.054 605.548l-340.052 217.318c-28.016 17.74-64.116 17.558-91.966-0.382l-340.404-217.118c-21.138-13.622-26.978-41.428-13.072-62.106 13.924-20.678 42.33-26.41 63.486-12.77l336.288 214.506 335.88-214.686c7.714-4.878 16.334-7.182 24.864-7.182 15.056 0 29.74 7.202 38.51 20.442 13.758 20.786 7.676 48.502-13.534 61.98v0zM812.040 335.16c-2.8 15.69-16.742 27.298-33.004 27.298h-18.69l-7.102 72.318c-7.582 77.342-73.202 135.858-152.634 135.858h-177.182c-79.45 0-145.050-58.534-152.652-135.858l-7.082-72.318h-18.708c-16.278 0-30.204-11.61-33.042-27.298l-27.812-154.25c-3.45-19.118 2.076-38.798 14.834-53.636 12.274-14.294 30.354-22.818 49.266-23.454v-25.612c0-36.258 29.704-65.48 66.806-65.48h21.1c37.066 0 67.214 29.222 67.214 65.48v25.194h217.53v-25.14c0-36.278 29.908-65.534 66.972-65.534h21.118c37.066 0 67.010 29.258 67.010 65.534v25.558c18.912 0.634 36.878 9.086 49.116 23.362 12.756 14.874 18.208 34.446 14.796 53.598l-27.85 154.378zM307.024 162.898c-31.28 0-56.644 24.796-56.644 55.43s25.364 55.45 56.644 55.45c31.298 0 56.682-24.796 56.682-55.45 0-30.636-25.382-55.43-56.682-55.43v0zM321.152 362.458l6.546 66.714c4.766 48.502 45.91 85.034 95.73 85.034h10.216v-20.968c0-18.194 14.778-32.686 33.356-32.686h90.038c18.578 0 33.616 14.492 33.616 32.686v20.95h9.956c49.822 0 90.966-36.53 95.71-85.034l6.564-66.714-381.734 0.018zM716.942 162.898c-31.28 0-56.644 24.796-56.644 55.43s25.364 55.45 56.644 55.45c31.298 0 56.682-24.796 56.682-55.45 0-30.636-25.382-55.43-56.682-55.43v0z" />
<glyph unicode="&#xe912;" glyph-name="breakfast" d="M368.776 380.743l-190.96 194.82c-62.27 58.032-62.27 157.514 0 219.691l12.454 12.435 303.046-302.593-124.539-124.353zM605.401 393.179l340.407-344.045c16.605-16.58 16.605-41.451 0-58.032s-41.513-16.58-58.118 0l-344.559 344.045-344.559-344.045c-16.605-16.58-41.513-16.58-58.118 0s-16.605 41.451 0 58.032l481.552 484.979c-24.908 58.032-4.151 145.079 58.118 207.256 78.875 78.757 186.809 91.193 244.927 33.161s41.513-169.95-33.21-244.562c-62.27-66.322-145.296-87.047-207.566-58.032l-78.875-78.757z" />
<glyph unicode="&#xe913;" glyph-name="room-service" d="M132.741 237.037h758.518v-75.852h-758.518v75.852zM581.785 586.335c3.794 9.102 6.068 19.342 6.068 29.962 0 41.718-34.134 75.852-75.852 75.852s-75.852-34.134-75.852-75.852c0-10.62 2.276-20.86 6.068-29.962-148.29-30.72-261.31-157.014-271.55-311.372h682.666c-10.24 154.358-123.26 280.652-271.55 311.372v0z" />
<glyph unicode="&#xe914;" glyph-name="safe" d="M633.679 444.049c0-48.002-38.914-86.914-86.914-86.914s-86.914 38.914-86.914 86.914c0 48.002 38.914 86.914 86.914 86.914s86.914-38.914 86.914-86.914zM790.123 791.703h-556.246c-38.346 0-69.53-31.186-69.53-69.53v-556.246c0-38.382 31.186-69.53 69.53-69.53v-34.766h69.53v34.766h417.186v-34.766h69.53v34.766c38.382 0 69.53 31.15 69.53 69.53v556.246c0 38.346-31.15 69.53-69.53 69.53v0zM755.357 200.691h-451.95v104.296h-69.53v69.53h69.53v139.062h-69.53v69.53h69.53v104.296h451.95v-486.716z" />
<glyph unicode="&#xe915;" glyph-name="shower" horiz-adv-x="1041" d="M808.257 461.727h-575.913c0 97.507 79.045 176.497 176.497 176.497h49.371v219.581h124.155v-219.526h49.405c97.44 0 176.485-78.989 176.485-176.55v0zM549.712 391.355v0.282c0 16.219-13.161 29.272-29.413 29.272-16.284 0-29.445-13.323-29.445-29.565 0-16.219 13.161-29.413 29.445-29.413 16.261 0.011 29.413 13.205 29.413 29.422v0zM549.712 146.819v0.619c0 16.284-13.161 29.195-29.413 29.195-16.284 0-29.445-13.475-29.445-29.815 0-16.219 13.161-29.413 29.445-29.413 16.261 0 29.413 13.193 29.413 29.413v0zM549.712 269.032v0.673c0 16.231-13.161 29.087-29.413 29.087-16.284 0-29.445-13.422-29.445-29.748 0-16.176 13.161-29.422 29.445-29.422 16.261 0 29.413 13.237 29.413 29.413v0zM549.712 24.95v0.326c0 16.231-13.161 29.304-29.413 29.304-16.284 0-29.445-13.357-29.445-29.628 0-16.284 13.161-29.422 29.445-29.422 16.261 0 29.413 13.14 29.413 29.422v0zM865.748 30.674c15.156 6.005 22.398 23.124 16.393 38.173l-0.227 0.629c-6.005 15.103-23.015 22.28-38.065 15.991-15.209-5.952-22.344-23.341-16.284-38.39 4.608-11.558 15.556-18.527 27.288-18.527 3.6-0.011 7.306 0.715 10.895 2.125v0zM825.159 141.712c15.112 5.952 22.398 23.124 16.402 38.173l-0.227 0.629c-6.060 15.103-23.124 22.386-38.118 16.044-15.145-6.005-22.344-23.406-16.219-38.455 4.541-11.514 15.6-18.527 27.288-18.527 3.577 0 7.286 0.673 10.874 2.136v0zM782.098 251.85c15.556 4.661 24.372 21.043 19.699 36.601l-0.162 0.564c-4.673 15.6-20.892 24.143-36.546 19.429-15.556-4.608-24.307-21.216-19.6-36.883 3.708-12.749 15.503-20.946 28.069-20.946 2.883 0 5.681 0.337 8.543 1.237v0zM743.98 363.797c15.103 5.952 22.398 23.124 16.393 38.15l-0.227 0.585c-6.005 15.047-23.070 22.291-38.118 16.088-15.103-6.039-22.291-23.438-16.219-38.541 4.597-11.406 15.6-18.419 27.332-18.419 3.556-0.011 7.306 0.673 10.842 2.136v0zM692.461 11.812c15.937 3.144 26.323 18.636 23.070 34.573l-0.12 0.564c-3.198 15.949-18.8 26.16-34.529 22.798-16.002-3.144-26.268-18.971-23.015-34.811 2.807-14.028 15.047-23.688 28.74-23.688 2.028-0.12 3.989 0.12 5.854 0.564v0zM671.45 128.117c16.176 1.626 27.905 16.056 26.333 32.285l-0.055 0.564c-1.584 16.111-15.949 27.905-32.166 25.988-16.176-1.572-27.959-16.273-26.333-32.448 1.519-15.145 14.31-26.485 29.239-26.485 0.964 0 1.972 0 2.982 0.097v0zM656.077 245.453c15.937 3.154 26.268 18.594 23.070 34.583l-0.12 0.564c-3.078 15.829-18.636 25.942-34.476 22.68-15.937-3.144-26.213-18.865-23.015-34.811 2.819-14.028 15.059-23.635 28.74-23.635 1.984 0 3.935 0.173 5.799 0.619v0zM637.941 362.225c15.949 3.133 26.333 18.636 23.070 34.573l-0.109 0.564c-3.209 15.915-18.983 26.074-34.541 22.735-16.002-3.089-26.213-18.832-23.006-34.8 2.862-13.986 15.103-23.644 28.728-23.644 2.037 0 4 0.173 5.854 0.574v0zM213.036 47.067l0.25 0.564c6.039 15.047-1.355 31.873-16.501 37.826-14.906 6.072-32.307-1.452-38.28-16.608-5.986-15.047 1.202-32.166 16.36-38.173 3.566-1.408 7.329-2.136 10.883-2.136 11.709 0 22.68 6.962 27.288 18.527v0zM253.616 158.105l0.227 0.564c6.039 15.047-1.323 31.884-16.425 37.891-14.962 6.016-32.307-1.519-38.347-16.673-5.986-15.047 1.258-32.22 16.36-38.173 3.566-1.464 7.297-2.136 10.864-2.136 11.741 0 22.779 7.015 27.32 18.527v0zM295.137 271.559l0.162 0.619c4.717 15.6-4.259 31.667-19.764 36.275-15.829 4.934-32.079-4.379-36.687-19.991-4.661-15.556 4.13-31.938 19.699-36.601 2.895-0.899 5.704-1.237 8.444-1.237 12.673-0.011 24.404 8.185 28.145 20.934v0zM334.795 380.081l0.227 0.619c6.039 15.103-1.323 31.884-16.446 37.922-14.821 6.093-32.22-1.549-38.347-16.673-5.986-15.026 1.344-32.143 16.393-38.15 3.566-1.464 7.297-2.136 10.918-2.136 11.676-0.011 22.647 7.015 27.255 18.419v0zM382.735 34.935l0.173 0.574c3.23 15.937-7.186 31.092-23.156 34.291-15.806 3.318-31.385-7.415-34.67-23.341-3.221-15.894 7.133-31.44 23.103-34.583 1.854-0.499 3.794-0.619 5.81-0.619 13.672-0.131 25.933 9.53 28.74 23.678v0zM401.372 154.505l0.055 0.574c1.648 16.164-10.19 30.259-26.388 31.873-16.111 1.919-30.541-10.439-32.199-26.55-1.626-16.164 10.159-30.585 26.323-32.285 0.987-0.109 1.995-0.109 2.971-0.109 14.929 0.011 27.667 11.297 29.239 26.495v0zM419.065 268.468l0.109 0.574c3.221 15.937-7.186 31.147-23.103 34.236-15.579 3.535-31.44-7.415-34.67-23.286-3.198-15.949 7.133-31.494 23.049-34.638 1.908-0.391 3.87-0.564 5.866-0.564 13.757 0.044 25.933 9.649 28.751 23.678v0zM437.245 385.295l0.173 0.619c3.198 15.861-7.186 31.103-23.19 34.27-15.688 3.264-31.494-7.491-34.67-23.373-3.198-15.949 7.133-31.44 23.124-34.573 1.82-0.402 3.794-0.574 5.81-0.574 13.681-0.011 25.921 9.649 28.751 23.635v0z" />
<glyph unicode="&#xe916;" glyph-name="smoking" d="M132.74 218.074h568.89v-113.778h-568.89v113.778zM834.37 218.074h56.89v-113.778h-56.89v113.778zM739.556 218.074h56.89v-113.778h-56.89v113.778zM771.792 531.722c23.514 23.134 37.926 54.994 37.926 90.264 0 70.162-56.89 127.052-127.052 127.052v-56.89c38.684 0 70.162-31.478 70.162-70.162s-31.478-70.162-70.162-70.162v-56.89c84.954 0 151.704-69.404 151.704-154.358v-84.574h56.89v84.954c0 84.196-48.546 157.014-119.466 190.766v0zM664.842 438.044h-58.026c-38.684 0-70.162 37.166-70.162 75.852s31.478 66.37 70.162 66.37v56.89c-70.162 0-127.052-56.89-127.052-127.052s56.89-127.052 127.052-127.052h58.026c39.822 0 74.714-28.066 74.714-77.748v-49.304h56.89v62.198c0 68.646-60.682 119.846-131.602 119.846v0z" />
<glyph unicode="&#xe917;" glyph-name="stove" d="M924.4 537.077h-823.87c-29.79 0-53.994-24.854-53.994-55.445v-199.791c0-30.591 24.204-54.488 53.994-54.488h26.997v-26.765c0-7.649 5.586-13.382 13.033-13.382s13.033 5.735 13.033 13.382v26.765h716.814v-26.765c0-7.649 5.586-13.382 13.033-13.382s13.033 5.735 13.033 13.382v26.765h26.997c29.79 0 53.063 24.854 53.063 54.488v199.791c0.931 30.591-23.273 55.445-52.132 55.445v0zM338.847 340.153h-139.638c-7.447 0-13.033 5.735-13.033 13.382s5.586 13.382 13.033 13.382h139.638c7.447 0 13.033-5.735 13.033-13.382s-6.517-13.382-13.033-13.382v0zM338.847 397.509h-139.638c-7.447 0-13.033 5.735-13.033 13.382s5.586 13.382 13.033 13.382h139.638c7.447 0 13.033-5.735 13.033-13.382s-6.517-13.382-13.033-13.382v0zM821.997 325.813c-17.686-23.899-44.685-36.326-71.682-36.326-19.548 0-38.168 6.692-54.925 19.119-23.273 18.164-35.375 45.886-35.375 73.608 0 20.074 6.517 39.194 18.619 56.401 17.686 23.899 44.685 36.326 71.682 36.326 19.548 0 39.099-6.692 54.925-19.119 23.273-18.164 35.375-45.886 35.375-73.608 0-20.074-6.517-40.149-18.619-56.401v0zM773.588 426.188c-3.722 0-7.447-1.912-10.242-4.78l-46.547-62.136c-4.655-5.735-3.722-14.34 2.793-19.119 5.586-4.78 13.964-3.823 18.619 1.912l46.547 62.136c4.655 5.735 3.722 14.34-2.793 19.119-2.793 2.868-5.586 2.868-8.378 2.868v0zM781.036 424.277c-1.862 1.912-5.586 2.868-8.378 2.868-3.722 0-7.447-1.912-10.242-4.78l-46.547-62.136c-4.655-5.735-3.722-14.34 2.793-19.119 5.586-4.78 13.964-3.823 18.619 1.912l46.547 62.136c4.655 5.735 3.722 14.34-2.793 19.119v0zM783.83 405.156l-46.547-62.136c-4.655-5.735-13.033-6.692-18.619-1.912s-6.517 12.427-2.793 19.119l46.547 62.136c2.793 3.823 6.517 4.78 10.242 4.78 2.793 0 5.586-0.957 8.378-2.868 6.517-4.78 7.447-13.382 2.793-19.119v0zM768.003 650.833c-3.722 2.868-7.447 4.78-12.102 2.868l-31.65-8.604c-10.242-2.868-19.548-8.604-26.997-16.25v0 0c-6.517-7.649-10.242-17.207-10.242-26.765 0-10.515 3.722-21.030 12.102-28.679 7.447-6.692 16.757-10.515 26.066-10.515 10.242 0 20.481 3.823 27.928 12.427s12.102 19.119 13.964 30.591l4.655 32.502c0.931 4.78-0.931 8.604-3.722 12.427v0zM741.007 609.727c-0.931-5.735-3.722-11.472-7.447-16.25-1.862-2.868-5.586-3.823-8.378-3.823s-5.586 0.957-7.447 2.868c-2.793 1.912-3.722 5.735-3.722 8.604s0.931 5.735 2.793 7.649v0 0c3.722 4.78 9.309 7.649 13.964 8.604l12.102 2.868-1.862-10.515zM660.947 625.024l-10.242 31.546c-1.862 3.823-4.655 7.649-9.309 8.604s-8.378 0-12.102-2.868l-24.204-21.987c-7.447-7.649-13.964-17.207-16.757-27.722v0c-0.931-2.868-0.931-6.692-0.931-10.515 0-17.207 11.171-32.502 27.928-37.281v0c2.793-0.957 6.517-0.957 9.309-0.957 16.757 0 31.65 11.472 36.306 28.679 0.931 4.78 1.862 9.558 1.862 15.295 0.931 5.735 0 11.472-1.862 17.207v0zM636.743 599.212c-1.862-4.78-6.517-8.604-11.171-8.604h-2.793c-5.586 1.912-8.378 6.692-8.378 11.472v2.868c1.862 5.735 4.655 10.515 8.378 14.34l9.309 8.604 3.722-11.472c0.931-2.868 1.862-6.692 1.862-9.558s-0.931-4.78-0.931-7.649v0zM556.684 632.671l-17.686 27.722c-2.793 3.823-6.517 5.735-11.171 5.735s-8.378-1.912-11.171-5.735l-17.686-27.722c-5.586-9.558-9.309-20.074-9.309-31.546v0c0-21.030 16.757-38.237 38.168-38.237 20.481 0 38.168 17.207 38.168 38.237 0 10.515-2.793 21.987-9.309 31.546v0zM528.756 588.697c-6.517 0-11.171 5.735-11.171 11.472v0c0 5.735 1.862 11.472 4.655 16.25l6.517 10.515 6.517-10.515c3.722-4.78 4.655-10.515 4.655-17.207 0-5.735-5.586-10.515-11.171-10.515v0zM468.245 612.596v0c-2.793 11.472-8.378 21.030-16.757 27.722l-24.204 21.987c-3.722 2.868-7.447 3.823-12.102 2.868s-7.447-4.78-9.309-8.604l-10.242-31.546c-1.862-5.735-2.793-12.427-2.793-18.164 0-4.78 0.931-9.558 1.862-15.295 4.655-17.207 19.548-28.679 36.306-28.679 3.722 0 6.517 0 9.309 0.957v0c16.757 4.78 27.928 20.074 27.928 37.281 0.931 3.823 0 7.649 0 11.472v0zM434.732 590.61h-2.793c-4.655 0-9.309 3.823-11.171 8.604-0.931 2.868-0.931 5.735-0.931 7.649 0 2.868 0.931 6.692 1.862 9.558l3.722 11.472 9.309-8.604c4.655-3.823 7.447-9.558 8.378-14.34v0 0-2.868c0-4.78-3.722-10.515-8.378-11.472v0zM359.326 628.848v0 0c-7.447 8.604-16.757 14.34-26.997 17.207l-31.65 8.604c-4.655 0.957-8.378 0-12.102-2.868-2.793-2.868-4.655-7.649-3.722-12.427l4.655-32.502c1.862-11.472 6.517-21.987 13.964-30.591s17.686-12.427 27.928-12.427c9.309 0 18.619 3.823 26.066 10.515 8.378 7.649 12.102 18.164 12.102 28.679 0 8.604-2.793 18.164-10.242 25.811v0zM339.778 593.477c-1.862-1.912-4.655-2.868-8.378-2.868-2.793 0-6.517 0.957-8.378 3.823-3.722 4.78-6.517 9.558-7.447 16.25l-1.862 12.427 12.102-2.868c5.586-0.957 10.242-4.78 14.895-8.604v0 0c1.862-1.912 2.793-4.78 2.793-7.649 0-4.78-0.931-8.604-3.722-10.515v0z" />
<glyph unicode="&#xe918;" glyph-name="travel-desk" d="M907.734 179.2v381.562c0 46.324-38.578 82.894-84.622 82.894h-161.778v21.942c0 49.982-42.31 91.428-93.334 91.428h-110.756c-51.022 0-93.334-41.448-93.334-91.428v-21.942h-163.022c-47.29 0-84.622-37.79-84.622-82.894v-380.342c0-46.324 38.578-82.894 84.622-82.894h622.222c46.044-1.218 84.622 35.352 84.622 81.676v0zM596.624 643.656h-166.756v21.942c0 15.848 12.444 28.038 28.622 28.038h110.756c16.178 0 28.622-12.19 28.622-28.038v-21.942h-1.244z" />
<glyph unicode="&#xe919;" glyph-name="tv" d="M824.891 635.259h-263.87l114.378 114.378-24.336 24.684-139.062-139.062-139.062 139.062-24.684-24.684 114.726-114.378h-263.87c-38.242 0-69.53-30.942-69.53-69.53v-417.186c0-38.242 31.29-69.53 69.53-69.53h625.778c38.242 0 69.53 31.29 69.53 69.53v417.186c0 38.59-31.29 69.53-69.53 69.53v0zM824.891 148.543h-625.778v417.186h625.778v-417.186zM407.705 496.197v-278.124l243.358 139.062-243.358 139.062z" />
<glyph unicode="&#xe91a;" glyph-name="sq-feet" d="M972.566 755.346c0 72.519-58.624 131.437-131.024 131.437h-677.043c-72.439 0-131.076-58.904-131.076-131.437v-675.871c0-72.494 58.65-131.385 131.076-131.385h437.065v103.82h-437.065c-14.992 0-27.255 12.314-27.255 27.564v675.871c0 15.3 12.261 27.616 27.255 27.616h677.043c14.946 0 27.204-12.319 27.204-27.616v-755.346h103.82v755.346z" />
<glyph unicode="&#xe91b;" glyph-name="wifi" horiz-adv-x="1033" d="M183.857 443.844c183.6 183.6 481.349 183.6 664.95 0l73.884 73.884c-224.236 224.236-588.114 224.236-812.716 0l73.884-73.884zM405.506 222.194l110.824-110.824 110.824 110.824c-60.955 61.326-160.326 61.326-221.65 0v0zM257.74 369.96l73.884-73.884c101.956 101.956 267.459 101.956 369.416 0l73.884 73.884c-142.594 142.594-374.219 142.594-517.184 0v0z" />
<glyph unicode="&#xe91c;" glyph-name="guests" horiz-adv-x="1434" d="M1039.36 426.667c98.918 0 178.483 81.92 178.483 182.857s-79.565 182.857-178.483 182.857c-98.918 0-179.2-81.92-179.2-182.857s80.282-182.857 179.2-182.857v0zM501.76 499.81c118.989 0 214.323 98.011 214.323 219.429s-95.334 219.429-214.323 219.429c-118.989 0-215.040-98.011-215.040-219.429s96.051-219.429 215.040-219.429v0zM1039.36 280.381c-131.174 0-394.24-67.291-394.24-201.143v-164.571h788.48v164.571c0 133.851-263.066 201.143-394.24 201.143v0zM501.76 353.524c-167.014 0-501.76-85.577-501.76-256v-182.857h501.76v164.571c0 62.171 23.654 171.154 169.882 253.806-62.362 13.166-122.573 20.48-169.882 20.48v0z" />
<glyph unicode="&#xe91d;" glyph-name="flash" horiz-adv-x="576" d="M549.921 463.86l-263.618 44.393 100.967 385.080-387.27-513.245 239.014-46.71-111.989-424.045z" />
<glyph unicode="&#xe91e;" glyph-name="question-circle-o" horiz-adv-x="960" d="M353.973 636.264c-3.787-3.988-6.080-6.521-7.947-8.623 3.36 3.773 7.947 8.623 7.947 8.623zM516.853 605.759c12.107-15.198 18.133-33.091 18.133-53.679 0-14.767-4.16-28.888-12.48-42.523-4.587-7.815-10.4-15.414-17.92-22.528l-25.013-24.845c-24.16-24.037-39.573-45.056-46.667-63.38-7.093-18.54-10.613-42.739-10.613-72.866h55.627c0 26.516 3.147 46.565 8.96 60.2 5.813 13.474 18.933 30.127 38.933 49.691 27.52 26.947 45.867 47.373 54.827 61.278s13.547 32.013 13.547 54.326c0 36.81-12.32 67.153-37.12 90.705-24.587 23.821-57.493 35.624-98.507 35.624-44.373 0-79.2-13.905-104.587-41.499-25.44-27.81-38.133-64.189-38.133-109.676h55.627c0.8 27.379 5.173 48.182 12.693 62.733 13.333 26.085 37.28 39.181 72.32 39.181 28.107 0 48.107-7.599 60.373-22.744zM938.773 442.782c0 261.928-210.24 474.328-469.387 474.328-259.2 0-469.387-212.399-469.387-474.328 0-261.875 210.187-474.328 469.387-474.328 259.147 0 469.387 212.453 469.387 474.328zM42.72 442.782c0 238.107 191.040 431.158 426.667 431.158s426.667-193.051 426.667-431.158c0-238.107-191.040-431.158-426.667-431.158s-426.667 193.051-426.667 431.158zM421.067 207.854h62.293v65.698h-62.293z" />
<glyph unicode="&#xe91f;" glyph-name="whatsapp" horiz-adv-x="945" d="M693.059 313.844c-32.216-33.576-69.14-50.298-109.835-49.681-98.055 1.464-188.897 100.752-189.794 101.744l-1.265 1.267c-1.003 0.902-100.2 91.387-101.747 189.677-0.64 40.71 16.077 77.704 49.682 109.951 0.871 0.834 1.972 1.252 3.060 1.252 1.081 0 2.153-0.409 2.975-1.233l85.095-85.097c1.047-1.044 1.254-2.239 1.244-3.055s-0.244-2.003-1.316-3.024l-28.28-26.953c-14.535-13.846-21.757-33.783-19.324-53.335 3.343-26.87 20.604-56.056 51.301-86.756s59.889-47.958 86.759-51.301c19.534-2.433 39.485 4.791 53.33 19.321l26.953 28.279c1.021 1.073 2.21 1.311 3.027 1.319h0.054c0.816 0 1.977-0.22 3.003-1.244l85.098-85.095c1.651-1.651 1.64-4.302-0.021-6.035zM632.307 429.299c-7.427 7.422-17.287 11.446-27.792 11.316-10.498-0.122-20.27-4.379-27.518-11.982l-26.953-28.279c-6.362-6.675-15.413-10.010-24.185-8.919-13.123 1.633-35.344 10.158-66.681 41.49-31.33 31.332-39.853 53.555-41.485 66.678-1.094 8.782 2.239 17.821 8.917 24.185l28.28 26.95c7.6 7.243 11.858 17.015 11.982 27.515 0.127 10.5-3.89 20.371-11.319 27.797l-85.095 85.097c-14.76 14.763-39.070 14.973-54.178 0.477-40.78-39.132-61.055-84.66-60.257-135.315 1.726-109.777 102.364-204.839 112.455-214.092 9.251-10.086 104.31-110.723 214.091-112.449 0.956-0.016 1.912-0.023 2.869-0.023 49.505 0 94.051 20.272 132.442 60.283h0.003c14.496 15.113 14.284 39.414-0.479 54.177l-85.095 85.095zM482.532 51.39c-53.24 0-105.158 9.688-154.313 28.802-3.83 1.491-7.84 1.572-11.53 0.579-2.747 0.006-5.527-0.526-8.162-1.81l-259.225-126.274c-4.46-2.168-7.761-0.101-9.335 1.323-1.576 1.426-3.965 4.511-2.246 9.151l95.090 256.472c0.011 0.028 0.020 0.056 0.031 0.087l0.14 0.38c0.129 0.344 0.165 0.696 0.274 1.046 0.227 0.752 0.459 1.502 0.591 2.279 0.101 0.585 0.115 1.164 0.16 1.751 0.045 0.601 0.112 1.197 0.098 1.801-0.017 0.657-0.115 1.295-0.202 1.941-0.067 0.54-0.112 1.074-0.23 1.605-0.154 0.708-0.398 1.382-0.636 2.064-0.154 0.445-0.272 0.895-0.462 1.331-0.372 0.853-0.84 1.659-1.338 2.45-0.126 0.204-0.202 0.422-0.339 0.621-0.067 0.101-0.129 0.201-0.196 0.299-0.025 0.039-0.050 0.081-0.078 0.117-48.161 70.607-73.623 153.256-73.623 239.056 0 234.385 190.894 425.074 425.53 425.074s425.53-190.689 425.53-425.074c0-234.388-190.894-425.074-425.53-425.074zM482.532 938.667c-255.134 0-462.699-207.345-462.699-462.203 0-90.208 25.958-177.194 75.031-252.279l-91.993-248.129c-6.51-17.548-1.739-37.006 12.149-49.566 8.601-7.781 19.49-11.822 30.536-11.822 6.784 0 13.63 1.527 20.039 4.648l254.843 124.14c51.773-19.357 106.27-29.197 162.094-29.197 255.134 0 462.699 207.345 462.699 462.206 0 254.858-207.564 462.203-462.699 462.203v0z" />
<glyph unicode="&#xe920;" glyph-name="download" d="M896 256c-23.467 0-42.667-19.2-42.667-42.667v-128c0-23.467-19.2-42.667-42.667-42.667h-597.333c-23.467 0-42.667 19.2-42.667 42.667v128c0 23.467-19.2 42.667-42.667 42.667s-42.667-19.2-42.667-42.667v-128c0-70.667 57.333-128 128-128h597.333c70.667 0 128 57.333 128 128v128c0 23.467-19.2 42.667-42.667 42.667zM481.6 225.867c0.533-0.533 1.067-1.067 1.6-1.6 0 0 0 0 0 0s0.267-0.267 0.267-0.267c0 0 0 0 0.267-0.267 0 0 0 0 0.267-0.267 0 0 0.267-0.267 0.267-0.267s0 0 0 0 0.267-0.267 0.267-0.267c0 0 0 0 0 0 3.2-2.667 6.4-4.533 9.867-6.133 0 0 0 0 0.267 0 0 0 0 0 0.267 0 4.533-1.867 9.6-3.2 14.933-3.467 0 0 0 0 0 0 0.267 0 0.267 0 0.533 0 0 0 0 0 0 0s0.267 0 0.267 0c0 0 0.267 0 0.267 0s0.267 0 0.267 0 0.267 0 0.533 0 0.267 0 0.533 0c0 0 0.267 0 0.267 0s0.267 0 0.267 0c0 0 0.267 0 0.267 0s0 0 0 0c0.267 0 0.267 0 0.533 0 0 0 0 0 0 0 5.333 0.267 10.4 1.333 14.933 3.467 0 0 0 0 0 0s0.267 0 0.267 0c0 0 0.267 0 0.267 0s0 0 0 0c3.2 1.333 6.133 3.2 9.067 5.6 0 0 0 0 0 0s0.267 0.267 0.267 0.267c0 0 0 0 0 0s0.267 0.267 0.267 0.267c0 0 0 0 0.267 0.267 0 0 0 0 0.267 0.267 0 0 0.267 0.267 0.267 0.267s0 0 0 0c0.8 0.533 1.333 1.333 2.133 2.133l170.4 170.4c16.533 16.533 16.533 43.733 0 60.267s-43.733 16.533-60.267 0l-97.067-97.6v494.4c0 23.467-19.2 42.667-42.667 42.667s-42.667-19.2-42.667-42.667v-494.4l-97.867 97.867c-16.533 16.533-43.733 16.533-60.267 0s-16.533-43.733 0-60.267l170.4-170.667z" />
<glyph unicode="&#xe921;" glyph-name="printer-text" d="M800 160h64.183c52.918 0 95.817 43.019 95.817 95.982v288.037c0 53.009-42.898 95.982-95.817 95.982h-64.183v224.012c0 35.339-28.51 63.988-63.918 63.988h-480.165c-35.301 0-63.918-28.398-63.918-63.988v-224.012h-64.183c-52.918 0-95.817-43.019-95.817-95.982v-288.037c0-53.009 42.898-95.982 95.817-95.982h64.183v-128.012c0-35.339 28.51-63.988 63.918-63.988h480.165c35.301 0 63.918 28.398 63.918 63.988v128.012zM192 192h-63.765c-35.488 0-64.235 28.693-64.235 64.088v287.823c0 35.495 28.759 64.088 64.235 64.088h735.531c35.488 0 64.235-28.693 64.235-64.088v-287.823c0-35.495-28.759-64.088-64.235-64.088h-63.765v96h-608v-96zM255.999 896h480.003c17.448 0 31.999-14.284 31.999-31.905v-224.095h-544v224.095c0 17.408 14.326 31.905 31.999 31.905zM224 256h544v-224.095c0-17.408-14.326-31.905-31.999-31.905h-480.003c-17.448 0-31.999 14.284-31.999 31.905v224.095zM768 448c17.673 0 32 14.327 32 32s-14.327 32-32 32c-17.673 0-32-14.327-32-32s14.327-32 32-32v0zM256 192v-32h480v32h-480zM256 96v-32h480v32h-480z" />
<glyph unicode="&#xe922;" glyph-name="location" d="M512.064 392.128c105.888 0 192 86.144 192 192s-86.112 192-192 192c-105.888 0-192-86.112-192-192s86.112-192 192-192zM512.064 744.128c88.256 0 160-71.744 160-160s-71.744-160-160-160c-88.256 0-160 71.744-160 160s71.744 160 160 160zM512 960c-211.776 0-384-170.112-384-384.032 0-224 192.032-453.152 332.032-614.208 0.512-0.64 22.976-25.76 50.752-25.76 0.064 0 2.336 0 2.464 0 27.744 0 50.24 25.12 50.752 25.76 140.064 161.056 332.064 390.176 332.064 614.208 0 213.92-172.256 384.032-384.064 384.032zM515.744 3.744c-0.672-0.64-2.624-2.048-4.32-3.136-0.32 0.864-2.688 2.752-4.128 4.256-117.28 134.944-315.296 362.688-315.296 571.104 0 176.448 143.584 320.032 320 320.032 176.512 0 320.064-143.584 320.064-320.064 0-208.384-198.016-436.128-316.32-572.192z" />
<glyph unicode="&#xe923;" glyph-name="mail-envelope-closed" d="M170.080 663.235l247.52-215.235-247.581-215.287c-6.206 5.878-10.019 14.235-10.019 23.507v383.562c0 9.253 3.874 17.582 10.080 23.454zM885.981 663.287c6.206-5.878 10.019-14.235 10.019-23.507v-383.562c0-9.252-3.874-17.582-10.080-23.454l-247.52 215.235 247.581 215.287zM614.459 427.181l233.541-203.181h-640l233.541 203.181 86.459-75.181 86.459 75.181zM192.115 704c-35.41 0-64.115-28.624-64.115-63.81v-384.38c0-35.241 28.472-63.81 64.115-63.81h671.77c35.41 0 64.115 28.624 64.115 63.81v384.38c0 35.241-28.472 63.81-64.115 63.81h-671.77zM528 393.6l-320 278.4h640l-320-278.4z" />
<glyph unicode="&#xe924;" glyph-name="close" d="M810 664.667l-238-238 238-238-60-60-238 238-238-238-60 60 238 238-238 238 60 60 238-238 238 238z" />
<glyph unicode="&#xe925;" glyph-name="gift" d="M457.386 341.3v-400.468h-339.561c-44.133 0-79.926 34.707-79.926 77.549v322.919h419.488zM577.444 341.3h419.341v-322.919c0-42.842-35.803-77.549-79.931-77.549h-339.41v400.468zM91.827 644.967h150.122c-20.721 9.649-38.102 19.617-48.612 29.804-61.836 59.983-61.836 157.285 0 217.278 30.955 29.993 71.482 44.987 112.007 44.987 40.533 0 81.068-14.994 111.982-44.987 25.676-24.918 50.377-86.422 70.543-149.8 9.419 2.508 19.113 4.264 29.311 4.264 10.163 0 19.86-1.759 29.235-4.247 20.245 63.95 45.179 126.29 71.095 151.416 30.917 29.993 71.406 44.984 111.977 44.984 40.53 0 81.060-14.994 111.977-44.984 61.833-60.015 61.833-157.297 0-217.278-11.062-10.779-29.699-21.319-52.060-31.437h153.479c44.13 0 79.888-34.704 79.888-77.515v-65.96c0-42.815-35.758-77.503-79.888-77.503h-365.44v217.902h-120.059v-217.902h-365.561c-44.125 0-79.888 34.692-79.888 77.505v65.96c0.003 42.808 35.765 77.512 79.891 77.512zM360.724 837.138c-14.771 14.341-34.464 22.248-55.38 22.248-20.944 0-40.609-7.907-55.425-22.248-14.771-14.348-22.901-33.425-22.901-53.729s8.13-39.379 22.827-53.636c16.536-15.134 81.291-38.713 161.343-60.676 2.263 7.531 5.319 14.657 9.183 21.41-21.81 73.086-44.715 131.315-59.648 146.631zM784.87 838.769c-14.776 14.331-34.471 22.238-55.385 22.238-20.946 0-40.609-7.888-55.339-22.199-15.052-15.453-38.226-74.437-60.19-148.282 3.636-6.33 6.522-13.009 8.793-20.039 80.432 21.99 145.587 45.689 162.123 60.816 30.524 29.634 30.524 77.832-0.003 107.466z" />
<glyph unicode="&#xe926;" glyph-name="entertainment" d="M976.149 875.702h-928.040c-0.122 0.002-0.267 0.002-0.413 0.002-26.181 0-47.43-21.091-47.699-47.203v-735.374c0-26.094 21.547-47.229 48.054-47.229h928.040c26.566 0 48.11 21.134 48.11 47.229v735.346c0 25.973-21.842 47.229-48.41 47.229zM978.507 93.069c0-0.59-0.827-1.774-2.358-1.774h-928.040c-1.597 0-2.358 1.179-2.358 1.179v735.762c0 0.59 0.77 1.651 2.358 1.651h928.040c1.533 0 2.358-1.179 2.358-1.477v-735.29zM155.846 756.981h-98.59c-13.994 0-25.387-10.27-25.387-22.845 0-12.634 11.394-22.845 25.387-22.845h98.59c14.050 0 25.389 10.624 25.389 23.022 0 12.99-11.338 23.022-25.389 23.022zM318.018 756.981h-98.414c-14.050 0-25.389-10.27-25.389-22.845 0-12.634 11.338-22.845 25.389-22.845h98.414c13.994 0 25.387 10.624 25.387 23.022 0 12.99-11.394 23.022-25.387 23.022zM381.778 711.291h98.414c14.050 0 25.389 10.624 25.389 23.022 0 12.99-11.338 23.022-25.389 23.022h-98.414c-14.050 0-25.387-10.038-25.387-22.611s11.338-22.845 25.387-22.845zM543.947 711.291h98.47c13.994 0 25.389 10.624 25.389 23.022 0 12.99-11.394 23.022-25.389 23.022h-98.47c-13.994 0-25.389-10.038-25.389-22.611s11.394-22.845 25.389-22.845zM804.65 757.334h-98.47c-14.050 0-25.389-10.038-25.389-22.611s11.338-22.845 25.389-22.845h98.414c13.576 0 25.389 10.214 25.389 22.845s-11.806 22.907-25.389 22.907zM966.818 757.334h-98.414c-14.050 0-25.389-10.038-25.389-22.611s11.338-22.845 25.389-22.845h98.414c13.994 0 25.387 10.214 25.387 22.845s-11.394 22.907-25.387 22.907zM155.846 210.606h-98.59c-13.994 0-25.387-10.446-25.387-23.022 0-12.634 11.394-22.845 25.387-22.845h98.59c14.050 0 25.389 10.624 25.389 23.022 0 12.75-11.338 23.022-25.389 23.022zM318.018 210.606h-98.414c-14.050 0-25.389-10.446-25.389-23.022 0-12.634 11.338-22.845 25.389-22.845h98.414c13.994 0 25.387 10.624 25.387 23.022 0 12.75-11.394 23.022-25.387 23.022zM480.189 210.606h-98.414c-14.050 0-25.387-10.446-25.387-23.022 0-12.634 11.338-22.845 25.387-22.845h98.414c14.050 0 25.389 10.624 25.389 23.022 0 12.75-11.338 23.022-25.389 23.022zM642.418 210.606h-98.47c-13.994 0-25.389-10.446-25.389-23.022 0-12.634 11.394-22.845 25.389-22.845h98.47c13.994 0 25.389 10.624 25.389 23.022 0 12.75-11.394 23.022-25.389 23.022zM804.65 210.606h-98.47c-14.050 0-25.389-10.446-25.389-23.022 0-12.634 11.338-22.845 25.389-22.845h98.414c13.576 0 25.389 10.624 25.389 23.022 0 12.75-11.806 23.022-25.389 23.022zM966.818 210.606h-98.414c-14.050 0-25.389-10.446-25.389-23.022 0-12.634 11.338-22.845 25.389-22.845h98.414c13.994 0 25.387 10.624 25.387 23.022 0 12.75-11.394 23.022-25.387 23.022zM417.082 633.893c-20.429 0-35.304-16.176-35.304-38.37v-269.501c0-22.195 14.875-38.258 35.304-38.258 7.085 0 14.17 1.95 21.078 5.786l242.046 134.722c13.282 7.438 20.958 19.246 20.958 32.47 0 13.166-7.674 25.032-21.014 32.47l-241.514 134.482c-6.037 3.594-13.288 5.774-21.038 5.906l-0.038 0.002zM427.41 339.898v241.754l217.136-120.85-217.136-120.906z" />
<glyph unicode="&#xe927;" glyph-name="check-circle" d="M938.667 509.067c-23.467 0-42.667-19.2-42.667-42.667v-39.733c0-211.733-172.267-383.733-384-383.733s-384 172.267-384 384c0 211.733 172.267 384 384 384 55.467 0 108.8-11.467 158.667-34.133 21.333-9.867 46.667-0.267 56.533 21.067s0.267 46.667-21.067 56.533c-61.067 27.733-126.4 41.867-193.867 41.867-258.667 0-469.333-210.667-469.333-469.333s210.667-469.333 469.333-469.333c258.667 0 469.067 210.4 469.333 469.067v39.733c-0.267 23.467-19.467 42.667-42.933 42.667zM1011.467 840.8c-16.533 16.533-43.733 16.533-60.267 0l-439.2-439.2-97.867 97.867c-16.533 16.533-43.733 16.533-60.267 0s-16.533-43.733 0-60.267l128-128c8.267-8.267 19.2-12.533 30.133-12.533s21.867 4.267 30.133 12.533l469.333 469.333c16.8 16.533 16.8 43.733 0 60.267z" />
<glyph unicode="&#xe928;" d="M512 853.334c-235.52 0-426.667-191.147-426.667-426.667s191.147-426.667 426.667-426.667c235.52 0 426.667 191.147 426.667 426.667s-191.147 426.667-426.667 426.667zM426.667 213.334l-213.333 213.333 60.16 60.16 153.173-152.747 323.84 323.84 60.16-60.587-384-384z" />
<glyph unicode="&#xe929;" d="M426.667 213.334l-213.333 213.333 60.16 60.16 153.173-152.747 323.84 323.84 60.16-60.587z" />
<glyph unicode="&#xe92a;" glyph-name="couple" horiz-adv-x="1654" d="M367.963 270.2c83.574-69.79 185.895-69.868 269.863 0 80.581-15.518 152.891-44.505 209.29-83.889 46.159-32.059 81.29-70.577 101.77-111.616v-79.399h-892.062v79.399c46.238 92.711 164.943 167.306 311.138 195.505zM401.203 767.785l-23.552 23.473-19.535-27.018c-17.802-24.734-40.802-47.655-69.79-69.79 29.302 111.537 114.767 187.471 214.489 187.471 100.825 0 186.132-76.406 214.882-191.173-114.688-16.384-273.802 34.422-316.495 77.036zM502.816 273.666c-127.055 0-225.595 180.539-225.595 335.872 0 2.127 0.236 4.175 0.473 6.223 0 0.473 0.079 0.866 0.158 1.418 42.378 25.206 78.612 55.532 107.993 90.348 72.94-49.467 224.020-89.561 340.913-72.94 0.945-8.428 1.812-16.62 1.812-25.049 0-155.333-98.619-335.872-225.753-335.872zM944.711 323.527h-65.3l6.223 12.524h0.079c6.538 13.154 12.524 32.138 17.881 56.793 11.185-24.655 24.97-47.813 41.118-69.317zM1330.286 323.527c15.833 21.031 29.381 43.874 40.487 68.293 5.278-24.182 11.264-42.535 17.881-55.769l6.223-12.524h-64.591zM1042.148 237.117c12.209-6.144 24.655-11.106 36.864-14.651 2.993-0.945 5.986-1.89 9.216-2.757 37.652-9.452 60.889-9.295 98.698 0 2.993 0.866 5.986 1.812 8.743 2.678 12.524 3.623 24.97 8.586 36.943 14.651 60.967-9.295 119.020-27.963 167.778-53.878 71.129-37.888 118.154-107.599 127.291-187.865h-522.082l-0.236 87.906-2.363 9.846c-18.038 38.754-46.553 75.382-84.834 108.938 41.196 17.172 81.841 28.672 123.983 35.131zM990.555 533.84c89.639 20.244 169.275 57.502 231.424 108.071 4.411-21.898 10.791-39.542 19.062-52.697 18.905-30.090 53.957-59.392 104.29-87.040-14.494-89.639-62.070-168.724-125.243-207.399-2.284-1.418-4.726-2.599-7.010-3.702l-4.332-2.127c-6.459-3.387-13.312-6.38-20.953-9.137-5.908-2.048-11.894-4.096-18.117-5.356-3.466-0.866-6.932-1.26-10.398-1.654l-3.545-0.394c-12.288-1.418-24.497-1.418-36.47 0l-3.623 0.394c-3.466 0.473-7.010 0.788-10.555 1.654-5.986 1.26-11.973 3.308-17.881 5.278-7.089 2.599-14.1 5.593-21.11 9.295l-4.411 2.206c-2.284 1.024-4.49 2.127-6.695 3.466-68.45 41.905-117.918 131.387-127.606 229.612 22.686 2.048 43.402 5.199 63.173 9.531zM1289.090 619.384c-5.356 8.507-14.651 30.169-16.935 79.557 0 11.185-7.404 21.11-18.826 25.285-3.702 1.339-7.404 1.969-11.028 1.969-7.877 0-15.124-3.072-19.929-8.743-55.375-59.707-142.178-105.236-244.185-128.236-16.305-3.623-33.477-6.302-52.224-8.113 8.822 126.425 90.821 207.399 211.495 207.399 125.558 0 210.471-89.561 212.834-223.468-29.46 18.59-50.412 37.258-61.204 54.351zM1427.015 233.178c-24.182 12.918-50.964 24.103-80.817 33.556h94.602c9.767 0 18.983 5.12 24.103 13.548 5.199 8.35 5.593 18.668 1.26 27.569l-26.86 53.563c-16.463 32.926-27.648 123.825-32.295 190.858l0.079 6.932c0 168.409-110.828 286.090-269.627 286.090-19.535 0-38.676-1.812-56.95-5.435-129.182-25.127-212.677-134.853-212.677-279.001-3.387-58.368-15.281-164.155-33.004-199.444l-26.782-53.563c-4.254-8.901-3.86-19.22 1.26-27.648 5.12-8.35 14.415-13.47 24.182-13.47h95.468c-22.607-7.404-43.717-15.754-63.252-25.127-51.988 33.634-113.191 59.234-182.114 76.091 62.070 77.588 101.612 190.149 101.612 291.84 0 184.556-123.983 329.098-282.388 329.098-158.247 0-282.309-144.542-282.309-329.098 0-101.691 39.542-214.331 101.691-291.761-152.497-37.652-271.281-120.911-319.488-224.729l-2.678-154.545h1585.94v28.357c0 112.167-60.889 214.252-158.956 266.319z" />
<glyph unicode="&#xe92b;" glyph-name="room" d="M876.8 353.067c45.76 0 83.2-37.44 83.2-83.2v-249.6c0-24.96-16.64-41.6-41.6-41.6s-41.6 16.64-41.6 41.6v83.2h-665.6v-83.2c0-24.96-16.64-41.6-41.6-41.6s-41.6 16.64-41.6 41.6v249.6c0 45.76 37.44 83.2 83.2 83.2h665.6zM252.8 644.267v-208h-83.2v374.4h748.8v-374.4h-83.2v208h-582.4zM336 561.067h166.4v-124.8h-166.4v124.8zM585.6 561.067h166.4v-124.8h-166.4v124.8z" />
<glyph unicode="&#xe92c;" glyph-name="staff" d="M128 354.667c66.894 54.080 175.598 87.36 271.759 108.16l96.161-416h-238.312l-129.608 307.84zM688.241 458.667c100.342-16.64 209.045-49.92 271.759-104l-129.608-312h-238.312l96.161 416zM546.090 500.267c-91.98 0-167.236 87.36-163.055 187.2 0 8.32 0 12.48 0 20.8h330.291c0-8.32 0-12.48 0-20.8 0-104-75.256-187.2-167.236-187.2zM684.060 791.467h-305.206v83.2h334.472v-83.2h-29.266zM546.090 292.267c-23.090 0-41.809 18.625-41.809 41.6s18.719 41.6 41.809 41.6c23.090 0 41.809-18.625 41.809-41.6s-18.719-41.6-41.809-41.6zM546.090 125.867c-23.090 0-41.809 18.625-41.809 41.6s18.719 41.6 41.809 41.6c23.090 0 41.809-18.625 41.809-41.6s-18.719-41.6-41.809-41.6z" />
<glyph unicode="&#xe972;" glyph-name="users" horiz-adv-x="1152" d="M768 189.388v52.78c70.498 39.728 128 138.772 128 237.832 0 159.058 0 288-192 288s-192-128.942-192-288c0-99.060 57.502-198.104 128-237.832v-52.78c-217.102-17.748-384-124.42-384-253.388h896c0 128.968-166.898 235.64-384 253.388zM327.196 164.672c55.31 36.15 124.080 63.636 199.788 80.414-15.054 17.784-28.708 37.622-40.492 59.020-30.414 55.234-46.492 116.058-46.492 175.894 0 86.042 0 167.31 30.6 233.762 29.706 64.504 83.128 104.496 159.222 119.488-16.914 76.48-61.94 126.75-181.822 126.75-192 0-192-128.942-192-288 0-99.060 57.502-198.104 128-237.832v-52.78c-217.102-17.748-384-124.42-384-253.388h279.006c14.518 12.91 30.596 25.172 48.19 36.672z" />
<glyph unicode="&#xe986;" glyph-name="search" d="M992.262 88.604l-242.552 206.294c-25.074 22.566-51.89 32.926-73.552 31.926 57.256 67.068 91.842 154.078 91.842 249.176 0 212.078-171.922 384-384 384-212.076 0-384-171.922-384-384s171.922-384 384-384c95.098 0 182.108 34.586 249.176 91.844-1-21.662 9.36-48.478 31.926-73.552l206.294-242.552c35.322-39.246 93.022-42.554 128.22-7.356s31.892 92.898-7.354 128.22zM384 320c-141.384 0-256 114.616-256 256s114.616 256 256 256 256-114.616 256-256-114.614-256-256-256z" />
<glyph unicode="&#xea0f;" glyph-name="cross" d="M1014.662 137.34c-0.004 0.004-0.008 0.008-0.012 0.010l-310.644 310.65 310.644 310.65c0.004 0.004 0.008 0.006 0.012 0.010 3.344 3.346 5.762 7.254 7.312 11.416 4.246 11.376 1.824 24.682-7.324 33.83l-146.746 146.746c-9.148 9.146-22.45 11.566-33.828 7.32-4.16-1.55-8.070-3.968-11.418-7.31 0-0.004-0.004-0.006-0.008-0.010l-310.648-310.652-310.648 310.65c-0.004 0.004-0.006 0.006-0.010 0.010-3.346 3.342-7.254 5.76-11.414 7.31-11.38 4.248-24.682 1.826-33.83-7.32l-146.748-146.748c-9.148-9.148-11.568-22.452-7.322-33.828 1.552-4.16 3.97-8.072 7.312-11.416 0.004-0.002 0.006-0.006 0.010-0.010l310.65-310.648-310.65-310.652c-0.002-0.004-0.006-0.006-0.008-0.010-3.342-3.346-5.76-7.254-7.314-11.414-4.248-11.376-1.826-24.682 7.322-33.83l146.748-146.746c9.15-9.148 22.452-11.568 33.83-7.322 4.16 1.552 8.070 3.97 11.416 7.312 0.002 0.004 0.006 0.006 0.010 0.010l310.648 310.65 310.648-310.65c0.004-0.002 0.008-0.006 0.012-0.008 3.348-3.344 7.254-5.762 11.414-7.314 11.378-4.246 24.684-1.826 33.828 7.322l146.746 146.748c9.148 9.148 11.57 22.454 7.324 33.83-1.552 4.16-3.97 8.068-7.314 11.414z" />
<glyph unicode="&#xea3c;" glyph-name="arrow-right" d="M621.254 82.746l320 320c24.994 24.992 24.994 65.516 0 90.51l-320 320c-24.994 24.992-65.516 24.992-90.51 0-24.994-24.994-24.994-65.516 0-90.51l210.746-210.746h-613.49c-35.346 0-64-28.654-64-64s28.654-64 64-64h613.49l-210.746-210.746c-12.496-12.496-18.744-28.876-18.744-45.254s6.248-32.758 18.744-45.254c24.994-24.994 65.516-24.994 90.51 0z" />
<glyph unicode="&#xea40;" glyph-name="arrow-left" d="M402.746 82.746l-320 320c-24.994 24.992-24.994 65.516 0 90.51l320 320c24.994 24.992 65.516 24.992 90.51 0 24.994-24.994 24.994-65.516 0-90.51l-210.746-210.746h613.49c35.346 0 64-28.654 64-64s-28.654-64-64-64h-613.49l210.746-210.746c12.496-12.496 18.744-28.876 18.744-45.254s-6.248-32.758-18.744-45.254c-24.994-24.994-65.516-24.994-90.51 0z" />
<glyph unicode="&#xea52;" glyph-name="checkbox-checked" d="M896 960h-768c-70.4 0-128-57.6-128-128v-768c0-70.4 57.6-128 128-128h768c70.4 0 128 57.6 128 128v768c0 70.4-57.6 128-128 128zM448 165.49l-237.254 237.256 90.51 90.508 146.744-146.744 306.746 306.746 90.508-90.51-397.254-397.256z" />
<glyph unicode="&#xea54;" glyph-name="radio-checked" d="M512 960c-282.77 0-512-229.23-512-512s229.23-512 512-512 512 229.23 512 512-229.23 512-512 512zM512 64c-212.078 0-384 171.922-384 384s171.922 384 384 384c212.078 0 384-171.922 384-384s-171.922-384-384-384zM320 448c0 106.039 85.961 192 192 192s192-85.961 192-192c0-106.039-85.961-192-192-192s-192 85.961-192 192z" />
<glyph unicode="&#xea56;" glyph-name="radio-unchecked" d="M512 960c-282.77 0-512-229.23-512-512s229.23-512 512-512 512 229.23 512 512-229.23 512-512 512zM512 64c-212.078 0-384 171.922-384 384s171.922 384 384 384c212.078 0 384-171.922 384-384s-171.922-384-384-384z" />
<glyph unicode="&#xea77;" glyph-name="paragraph-left" d="M0 896h1024v-128h-1024zM0 704h640v-128h-640zM0 320h640v-128h-640zM0 512h1024v-128h-1024zM0 128h1024v-128h-1024z" />
<glyph unicode="&#xeac9;" glyph-name="linkedin" d="M928 960h-832c-52.8 0-96-43.2-96-96v-832c0-52.8 43.2-96 96-96h832c52.8 0 96 43.2 96 96v832c0 52.8-43.2 96-96 96zM384 128h-128v448h128v-448zM320 640c-35.4 0-64 28.6-64 64s28.6 64 64 64c35.4 0 64-28.6 64-64s-28.6-64-64-64zM832 128h-128v256c0 35.4-28.6 64-64 64s-64-28.6-64-64v-256h-128v448h128v-79.4c26.4 36.2 66.8 79.4 112 79.4 79.6 0 144-71.6 144-160v-288z" />
<glyph unicode="&#xf011;" glyph-name="power-off" horiz-adv-x="878" d="M877.714 438.857q0-89.143-34.857-170.286t-93.714-140-140-93.714-170.286-34.857-170.286 34.857-140 93.714-93.714 140-34.857 170.286q0 104 46 196t129.429 154.286q24.571 18.286 54.571 14.286t47.714-28.571q18.286-24 14-54t-28.286-48.286q-56-42.286-86.571-103.429t-30.571-130.286q0-59.429 23.143-113.429t62.571-93.429 93.429-62.571 113.429-23.143 113.429 23.143 93.429 62.571 62.571 93.429 23.143 113.429q0 69.143-30.571 130.286t-86.571 103.429q-24 18.286-28.286 48.286t14 54q17.714 24.571 48 28.571t54.286-14.286q83.429-62.286 129.429-154.286t46-196zM512 877.714v-365.714q0-29.714-21.714-51.429t-51.429-21.714-51.429 21.714-21.714 51.429v365.714q0 29.714 21.714 51.429t51.429 21.714 51.429-21.714 21.714-51.429z" />
<glyph unicode="&#xf023;" glyph-name="lock" horiz-adv-x="658" d="M182.857 512h292.571v109.714q0 60.571-42.857 103.429t-103.429 42.857-103.429-42.857-42.857-103.429v-109.714zM658.286 457.143v-329.143q0-22.857-16-38.857t-38.857-16h-548.571q-22.857 0-38.857 16t-16 38.857v329.143q0 22.857 16 38.857t38.857 16h18.286v109.714q0 105.143 75.429 180.571t180.571 75.429 180.571-75.429 75.429-180.571v-109.714h18.286q22.857 0 38.857-16t16-38.857z" />
<glyph unicode="&#xf040;" glyph-name="pencil" horiz-adv-x="866" d="M207.429 73.143l52 52-134.286 134.286-52-52v-61.143h73.143v-73.143h61.143zM506.286 603.428q0 12.571-12.571 12.571-5.714 0-9.714-4l-309.714-309.714q-4-4-4-9.714 0-12.571 12.571-12.571 5.714 0 9.714 4l309.714 309.714q4 4 4 9.714zM475.429 713.143l237.714-237.714-475.429-475.429h-237.714v237.714zM865.714 658.286q0-30.286-21.143-51.429l-94.857-94.857-237.714 237.714 94.857 94.286q20.571 21.714 51.429 21.714 30.286 0 52-21.714l134.286-133.714q21.143-22.286 21.143-52z" />
<glyph unicode="&#xf067;" glyph-name="plus" horiz-adv-x="805" d="M804.571 530.286v-109.714q0-22.857-16-38.857t-38.857-16h-237.714v-237.714q0-22.857-16-38.857t-38.857-16h-109.714q-22.857 0-38.857 16t-16 38.857v237.714h-237.714q-22.857 0-38.857 16t-16 38.857v109.714q0 22.857 16 38.857t38.857 16h237.714v237.714q0 22.857 16 38.857t38.857 16h109.714q22.857 0 38.857-16t16-38.857v-237.714h237.714q22.857 0 38.857-16t16-38.857z" />
<glyph unicode="&#xf068;" glyph-name="minus" horiz-adv-x="805" d="M804.571 530.286v-109.714q0-22.857-16-38.857t-38.857-16h-694.857q-22.857 0-38.857 16t-16 38.857v109.714q0 22.857 16 38.857t38.857 16h694.857q22.857 0 38.857-16t16-38.857z" />
<glyph unicode="&#xf099;" glyph-name="twitter" horiz-adv-x="951" d="M925.714 717.714q-38.286-56-92.571-95.429 0.571-8 0.571-24 0-74.286-21.714-148.286t-66-142-105.429-120.286-147.429-83.429-184.571-31.143q-154.857 0-283.429 82.857 20-2.286 44.571-2.286 128.571 0 229.143 78.857-60 1.143-107.429 36.857t-65.143 91.143q18.857-2.857 34.857-2.857 24.571 0 48.571 6.286-64 13.143-106 63.714t-42 117.429v2.286q38.857-21.714 83.429-23.429-37.714 25.143-60 65.714t-22.286 88q0 50.286 25.143 93.143 69.143-85.143 168.286-136.286t212.286-56.857q-4.571 21.714-4.571 42.286 0 76.571 54 130.571t130.571 54q80 0 134.857-58.286 62.286 12 117.143 44.571-21.143-65.714-81.143-101.714 53.143 5.714 106.286 28.571z" />
<glyph unicode="&#xf09a;" glyph-name="facebook" horiz-adv-x="602" d="M548 944v-150.857h-89.714q-49.143 0-66.286-20.571t-17.143-61.714v-108h167.429l-22.286-169.143h-145.143v-433.714h-174.857v433.714h-145.714v169.143h145.714v124.571q0 106.286 59.429 164.857t158.286 58.571q84 0 130.286-6.857z" />
<glyph unicode="&#xf0d5;" glyph-name="google-plus" horiz-adv-x="1317" d="M821.143 429.143q0-118.857-49.714-211.714t-141.714-145.143-210.857-52.286q-85.143 0-162.857 33.143t-133.714 89.143-89.143 133.714-33.143 162.857 33.143 162.857 89.143 133.714 133.714 89.143 162.857 33.143q163.429 0 280.571-109.714l-113.714-109.143q-66.857 64.571-166.857 64.571-70.286 0-130-35.429t-94.571-96.286-34.857-132.857 34.857-132.857 94.571-96.286 130-35.429q47.429 0 87.143 13.143t65.429 32.857 44.857 44.857 28 47.429 12.286 42.286h-237.714v144h395.429q6.857-36 6.857-69.714zM1316.571 498.857v-120h-119.429v-119.429h-120v119.429h-119.429v120h119.429v119.429h120v-119.429h119.429z" />
<glyph unicode="&#xf0d7;" glyph-name="caret-down" horiz-adv-x="585" d="M585.143 548.571q0-14.857-10.857-25.714l-256-256q-10.857-10.857-25.714-10.857t-25.714 10.857l-256 256q-10.857 10.857-10.857 25.714t10.857 25.714 25.714 10.857h512q14.857 0 25.714-10.857t10.857-25.714z" />
<glyph unicode="&#xf104;" glyph-name="angle-left" horiz-adv-x="384" d="M358.286 640q0-7.429-5.714-13.143l-224.571-224.571 224.571-224.571q5.714-5.714 5.714-13.143t-5.714-13.143l-28.571-28.571q-5.714-5.714-13.143-5.714t-13.143 5.714l-266.286 266.286q-5.714 5.714-5.714 13.143t5.714 13.143l266.286 266.286q5.714 5.714 13.143 5.714t13.143-5.714l28.571-28.571q5.714-5.714 5.714-13.143z" />
<glyph unicode="&#xf105;" glyph-name="angle-right" horiz-adv-x="347" d="M340 402.286q0-7.429-5.714-13.143l-266.286-266.286q-5.714-5.714-13.143-5.714t-13.143 5.714l-28.571 28.571q-5.714 5.714-5.714 13.143t5.714 13.143l224.571 224.571-224.571 224.571q-5.714 5.714-5.714 13.143t5.714 13.143l28.571 28.571q5.714 5.714 13.143 5.714t13.143-5.714l266.286-266.286q5.714-5.714 5.714-13.143z" />
<glyph unicode="&#xf106;" glyph-name="angle-up" horiz-adv-x="658" d="M614.286 274.286q0-7.429-5.714-13.143l-28.571-28.571q-5.714-5.714-13.143-5.714t-13.143 5.714l-224.571 224.571-224.571-224.571q-5.714-5.714-13.143-5.714t-13.143 5.714l-28.571 28.571q-5.714 5.714-5.714 13.143t5.714 13.143l266.286 266.286q5.714 5.714 13.143 5.714t13.143-5.714l266.286-266.286q5.714-5.714 5.714-13.143z" />
<glyph unicode="&#xf107;" glyph-name="angle-down" horiz-adv-x="658" d="M614.286 530.286q0-7.429-5.714-13.143l-266.286-266.286q-5.714-5.714-13.143-5.714t-13.143 5.714l-266.286 266.286q-5.714 5.714-5.714 13.143t5.714 13.143l28.571 28.571q5.714 5.714 13.143 5.714t13.143-5.714l224.571-224.571 224.571 224.571q5.714 5.714 13.143 5.714t13.143-5.714l28.571-28.571q5.714-5.714 5.714-13.143z" />
<glyph unicode="&#xf111;" glyph-name="circle" horiz-adv-x="878" d="M877.714 438.857q0-119.429-58.857-220.286t-159.714-159.714-220.286-58.857-220.286 58.857-159.714 159.714-58.857 220.286 58.857 220.286 159.714 159.714 220.286 58.857 220.286-58.857 159.714-159.714 58.857-220.286z" />
<glyph unicode="&#xf16d;" glyph-name="instagram" horiz-adv-x="878" d="M585.143 438.857q0 60.571-42.857 103.429t-103.429 42.857-103.429-42.857-42.857-103.429 42.857-103.429 103.429-42.857 103.429 42.857 42.857 103.429zM664 438.857q0-93.714-65.714-159.429t-159.429-65.714-159.429 65.714-65.714 159.429 65.714 159.429 159.429 65.714 159.429-65.714 65.714-159.429zM725.714 673.143q0-21.714-15.429-37.143t-37.143-15.429-37.143 15.429-15.429 37.143 15.429 37.143 37.143 15.429 37.143-15.429 15.429-37.143zM438.857 798.857q-4 0-43.714 0.286t-60.286 0-55.143-1.714-58.857-5.714-40.857-10.571q-28.571-11.429-50.286-33.143t-33.143-50.286q-6.286-16.571-10.571-40.857t-5.714-58.857-1.714-55.143 0-60.286 0.286-43.714-0.286-43.714 0-60.286 1.714-55.143 5.714-58.857 10.571-40.857q11.429-28.571 33.143-50.286t50.286-33.143q16.571-6.286 40.857-10.571t58.857-5.714 55.143-1.714 60.286 0 43.714 0.286 43.714-0.286 60.286 0 55.143 1.714 58.857 5.714 40.857 10.571q28.571 11.429 50.286 33.143t33.143 50.286q6.286 16.571 10.571 40.857t5.714 58.857 1.714 55.143 0 60.286-0.286 43.714 0.286 43.714 0 60.286-1.714 55.143-5.714 58.857-10.571 40.857q-11.429 28.571-33.143 50.286t-50.286 33.143q-16.571 6.286-40.857 10.571t-58.857 5.714-55.143 1.714-60.286 0-43.714-0.286zM877.714 438.857q0-130.857-2.857-181.143-5.714-118.857-70.857-184t-184-70.857q-50.286-2.857-181.143-2.857t-181.143 2.857q-118.857 5.714-184 70.857t-70.857 184q-2.857 50.286-2.857 181.143t2.857 181.143q5.714 118.857 70.857 184t184 70.857q50.286 2.857 181.143 2.857t181.143-2.857q118.857-5.714 184-70.857t70.857-184q2.857-50.286 2.857-181.143z" />
<glyph unicode="&#x1f322;" glyph-name="checkbox-unchecked" d="M896 960h-768c-70.4 0-128-57.6-128-128v-768c0-70.4 57.6-128 128-128h768c70.4 0 128 57.6 128 128v768c0 70.4-57.6 128-128 128zM896 64h-768v768h768v-768z" />
</font>
</defs>
</svg>
